<mxfile host="Electron" modified="2024-07-05T07:42:40.799Z" agent="Mozilla/5.0 (Windows NT 10.0; Win64; x64) AppleWebKit/537.36 (KHTML, like Gecko) draw.io/24.6.4 Chrome/124.0.6367.207 Electron/30.0.6 Safari/537.36" etag="II3mHc3izI-BV3qXYFzV" version="24.6.4" type="device" pages="2">
  <diagram name="Page-1" id="e7e014a7-5840-1c2e-5031-d8a46d1fe8dd">
    <mxGraphModel dx="1195" dy="697" grid="1" gridSize="10" guides="1" tooltips="1" connect="1" arrows="1" fold="1" page="1" pageScale="1" pageWidth="1169" pageHeight="826" background="none" math="0" shadow="0">
      <root>
        <mxCell id="0" />
        <mxCell id="1" parent="0" />
        <mxCell id="LAO7RVgKkCjf4AvEU5w0-46" style="edgeStyle=orthogonalEdgeStyle;rounded=0;orthogonalLoop=1;jettySize=auto;html=1;entryX=0;entryY=0.5;entryDx=0;entryDy=0;" edge="1" parent="1" source="LAO7RVgKkCjf4AvEU5w0-41">
          <mxGeometry relative="1" as="geometry">
            <mxPoint x="150" y="95" as="targetPoint" />
          </mxGeometry>
        </mxCell>
        <mxCell id="LAO7RVgKkCjf4AvEU5w0-41" value="" style="ellipse;fillColor=strokeColor;html=1;" vertex="1" parent="1">
          <mxGeometry x="80" y="80" width="30" height="30" as="geometry" />
        </mxCell>
        <mxCell id="LAO7RVgKkCjf4AvEU5w0-47" style="edgeStyle=orthogonalEdgeStyle;rounded=0;orthogonalLoop=1;jettySize=auto;html=1;entryX=0;entryY=0.5;entryDx=0;entryDy=0;" edge="1" parent="1">
          <mxGeometry relative="1" as="geometry">
            <mxPoint x="260" y="95" as="sourcePoint" />
            <mxPoint x="300" y="95" as="targetPoint" />
          </mxGeometry>
        </mxCell>
        <mxCell id="LAO7RVgKkCjf4AvEU5w0-48" style="edgeStyle=orthogonalEdgeStyle;rounded=0;orthogonalLoop=1;jettySize=auto;html=1;" edge="1" parent="1">
          <mxGeometry relative="1" as="geometry">
            <mxPoint x="410" y="95" as="sourcePoint" />
            <mxPoint x="440" y="95" as="targetPoint" />
          </mxGeometry>
        </mxCell>
        <mxCell id="LAO7RVgKkCjf4AvEU5w0-50" style="edgeStyle=orthogonalEdgeStyle;rounded=0;orthogonalLoop=1;jettySize=auto;html=1;entryX=0;entryY=0.5;entryDx=0;entryDy=0;" edge="1" parent="1" target="LAO7RVgKkCjf4AvEU5w0-49">
          <mxGeometry relative="1" as="geometry">
            <mxPoint x="550" y="95" as="sourcePoint" />
          </mxGeometry>
        </mxCell>
        <mxCell id="LAO7RVgKkCjf4AvEU5w0-49" value="" style="ellipse;html=1;shape=endState;fillColor=strokeColor;" vertex="1" parent="1">
          <mxGeometry x="584" y="80" width="30" height="30" as="geometry" />
        </mxCell>
        <mxCell id="qSeWQvEykNP37Oi4yiAF-1" value="Store different graph versions" style="rounded=1;whiteSpace=wrap;html=1;" vertex="1" parent="1">
          <mxGeometry x="150" y="70" width="110" height="50" as="geometry" />
        </mxCell>
        <mxCell id="qSeWQvEykNP37Oi4yiAF-2" value="Extract&lt;div&gt;SHACL shapes&lt;/div&gt;" style="rounded=1;whiteSpace=wrap;html=1;" vertex="1" parent="1">
          <mxGeometry x="300" y="70" width="110" height="50" as="geometry" />
        </mxCell>
        <mxCell id="qSeWQvEykNP37Oi4yiAF-3" value="Compare&lt;div&gt;SHACL shapes&lt;/div&gt;" style="rounded=1;whiteSpace=wrap;html=1;" vertex="1" parent="1">
          <mxGeometry x="440" y="70" width="110" height="50" as="geometry" />
        </mxCell>
      </root>
    </mxGraphModel>
  </diagram>
  <diagram id="V4Prjcm52x0nQ9YmTNY4" name="Seite-2">
    <mxGraphModel dx="1050" dy="621" grid="1" gridSize="10" guides="1" tooltips="1" connect="1" arrows="1" fold="1" page="1" pageScale="1" pageWidth="827" pageHeight="1169" math="0" shadow="0">
      <root>
        <mxCell id="0" />
        <mxCell id="1" parent="0" />
        <mxCell id="XdZP9kozSnrzD7QysN4h-1" style="edgeStyle=orthogonalEdgeStyle;rounded=0;orthogonalLoop=1;jettySize=auto;html=1;entryX=0;entryY=0.5;entryDx=0;entryDy=0;" parent="1" source="XdZP9kozSnrzD7QysN4h-2" edge="1">
          <mxGeometry relative="1" as="geometry">
            <mxPoint x="160" y="235" as="targetPoint" />
          </mxGeometry>
        </mxCell>
        <mxCell id="XdZP9kozSnrzD7QysN4h-2" value="" style="ellipse;fillColor=strokeColor;html=1;" parent="1" vertex="1">
          <mxGeometry x="90" y="220" width="30" height="30" as="geometry" />
        </mxCell>
        <mxCell id="XdZP9kozSnrzD7QysN4h-3" style="rounded=0;orthogonalLoop=1;jettySize=auto;html=1;entryX=0;entryY=0.5;entryDx=0;entryDy=0;" parent="1" edge="1">
          <mxGeometry relative="1" as="geometry">
            <mxPoint x="270" y="235" as="sourcePoint" />
            <mxPoint x="310" y="235" as="targetPoint" />
          </mxGeometry>
        </mxCell>
        <mxCell id="XdZP9kozSnrzD7QysN4h-4" style="rounded=0;orthogonalLoop=1;jettySize=auto;html=1;entryX=0;entryY=0.5;entryDx=0;entryDy=0;" parent="1" target="XdZP9kozSnrzD7QysN4h-6" edge="1">
          <mxGeometry relative="1" as="geometry">
            <mxPoint x="420" y="235" as="sourcePoint" />
            <mxPoint x="450" y="235" as="targetPoint" />
          </mxGeometry>
        </mxCell>
        <mxCell id="XdZP9kozSnrzD7QysN4h-25" style="edgeStyle=orthogonalEdgeStyle;rounded=0;orthogonalLoop=1;jettySize=auto;html=1;exitX=0;exitY=0.5;exitDx=0;exitDy=0;" parent="1" source="XdZP9kozSnrzD7QysN4h-6" edge="1">
          <mxGeometry relative="1" as="geometry">
            <mxPoint x="480" y="234.72413793103453" as="targetPoint" />
          </mxGeometry>
        </mxCell>
        <mxCell id="XdZP9kozSnrzD7QysN4h-6" value="" style="ellipse;html=1;shape=endState;fillColor=strokeColor;" parent="1" vertex="1">
          <mxGeometry x="460" y="220" width="30" height="30" as="geometry" />
        </mxCell>
        <mxCell id="XdZP9kozSnrzD7QysN4h-7" value="Check shapes in new graph version G&lt;sub&gt;2&lt;/sub&gt;&amp;nbsp;" style="rounded=1;whiteSpace=wrap;html=1;" parent="1" vertex="1">
          <mxGeometry x="160" y="210" width="110" height="50" as="geometry" />
        </mxCell>
        <mxCell id="XdZP9kozSnrzD7QysN4h-24" style="edgeStyle=orthogonalEdgeStyle;rounded=0;orthogonalLoop=1;jettySize=auto;html=1;entryX=0.5;entryY=0;entryDx=0;entryDy=0;" parent="1" source="XdZP9kozSnrzD7QysN4h-8" target="XdZP9kozSnrzD7QysN4h-23" edge="1">
          <mxGeometry relative="1" as="geometry" />
        </mxCell>
        <mxCell id="XdZP9kozSnrzD7QysN4h-8" value="Modify Turtle file" style="rounded=1;whiteSpace=wrap;html=1;" parent="1" vertex="1">
          <mxGeometry x="310" y="210" width="110" height="50" as="geometry" />
        </mxCell>
        <mxCell id="XdZP9kozSnrzD7QysN4h-19" style="edgeStyle=orthogonalEdgeStyle;rounded=0;orthogonalLoop=1;jettySize=auto;html=1;entryX=0.5;entryY=0;entryDx=0;entryDy=0;" parent="1" source="XdZP9kozSnrzD7QysN4h-11" target="XdZP9kozSnrzD7QysN4h-7" edge="1">
          <mxGeometry relative="1" as="geometry" />
        </mxCell>
        <mxCell id="XdZP9kozSnrzD7QysN4h-11" value="&amp;lt;&amp;lt;QSE&amp;gt;&amp;gt;&lt;br&gt;&lt;br&gt;&lt;b&gt;Java objects S&lt;sub&gt;1&lt;/sub&gt;&lt;/b&gt;" style="html=1;align=center;verticalAlign=middle;dashed=0;whiteSpace=wrap;" parent="1" vertex="1">
          <mxGeometry x="155" y="80" width="120" height="70" as="geometry" />
        </mxCell>
        <mxCell id="XdZP9kozSnrzD7QysN4h-18" style="edgeStyle=orthogonalEdgeStyle;rounded=0;orthogonalLoop=1;jettySize=auto;html=1;entryX=0.5;entryY=0;entryDx=0;entryDy=0;" parent="1" source="XdZP9kozSnrzD7QysN4h-13" target="XdZP9kozSnrzD7QysN4h-8" edge="1">
          <mxGeometry relative="1" as="geometry" />
        </mxCell>
        <mxCell id="XdZP9kozSnrzD7QysN4h-13" value="&amp;lt;&amp;lt;QSE&amp;gt;&amp;gt;&lt;br&gt;&lt;br&gt;&lt;b&gt;Turtle file with all SHACL shapes S&lt;sub&gt;1&lt;/sub&gt;&lt;/b&gt;" style="html=1;align=center;verticalAlign=middle;dashed=0;whiteSpace=wrap;" parent="1" vertex="1">
          <mxGeometry x="295" y="80" width="140" height="90" as="geometry" />
        </mxCell>
        <mxCell id="XdZP9kozSnrzD7QysN4h-22" style="edgeStyle=orthogonalEdgeStyle;rounded=0;orthogonalLoop=1;jettySize=auto;html=1;entryX=0.5;entryY=1;entryDx=0;entryDy=0;" parent="1" source="XdZP9kozSnrzD7QysN4h-20" target="XdZP9kozSnrzD7QysN4h-7" edge="1">
          <mxGeometry relative="1" as="geometry" />
        </mxCell>
        <mxCell id="XdZP9kozSnrzD7QysN4h-20" value="GraphDB - G&lt;sub&gt;2&lt;/sub&gt;" style="shape=cylinder3;whiteSpace=wrap;html=1;boundedLbl=1;backgroundOutline=1;size=15;" parent="1" vertex="1">
          <mxGeometry x="171.88" y="300" width="86.25" height="60" as="geometry" />
        </mxCell>
        <mxCell id="XdZP9kozSnrzD7QysN4h-23" value="&amp;lt;&amp;lt;SPARQL-&lt;div&gt;&lt;span style=&quot;font-family: Verdana; text-align: left; text-wrap: nowrap; background-color: initial;&quot;&gt;ShapeValidator&lt;/span&gt;&amp;gt;&amp;gt;&lt;br&gt;&lt;br&gt;&lt;b&gt;Turtle file with all SHACL shapes S&lt;span style=&quot;font-size: 10px;&quot;&gt;2*&lt;/span&gt;&lt;/b&gt;&lt;/div&gt;" style="html=1;align=center;verticalAlign=middle;dashed=0;whiteSpace=wrap;" parent="1" vertex="1">
          <mxGeometry x="277.5" y="300" width="175" height="90" as="geometry" />
        </mxCell>
      </root>
    </mxGraphModel>
  </diagram>
</mxfile>
